<?xml version="1.0" encoding="utf-8"?>
<!-- Generator: Adobe Illustrator 24.3.0, SVG Export Plug-In . SVG Version: 6.00 Build 0)  -->
<svg version="1.1" id="图层_1" xmlns="http://www.w3.org/2000/svg" xmlns:xlink="http://www.w3.org/1999/xlink" x="0px" y="0px"
	 viewBox="0 0 870.6 131" style="enable-background:new 0 0 870.6 131;" xml:space="preserve">
<style type="text/css">
	.st0{fill:#FFFFFF;}
</style>
<g>
	<g>
		<polygon class="st0" points="127.8,35.3 127.8,38.3 127.8,41.4 127.8,62.7 130.9,62.7 133.9,62.7 176.6,62.7 176.6,56.6 
			133.9,56.6 133.9,41.4 188.8,41.4 188.8,35.3 		"/>
		<polygon class="st0" points="133.9,74.9 176.6,74.9 176.6,68.8 133.9,68.8 130.9,68.8 127.8,68.8 127.8,90.2 127.8,93.2 
			127.8,96.3 188.8,96.3 188.8,90.2 133.9,90.2 		"/>
	</g>
	<g>
		<path class="st0" d="M24.2,56.6l-12.2,0V41.4h27.4v0c9.7,0,17.8,6.4,20.5,15.2l-11.3,0v6.1l12.2,0l0,0h6.1
			c0-15.2-12.3-27.4-27.4-27.4v0H12H5.9v21.3v3v3l18.3,0V56.6z"/>
		<path class="st0" d="M60.7,68.8l-12.2,0v6.1l11.3,0c-2.6,8.8-10.8,15.2-20.5,15.2v0H12V74.9l12.2,0v-6.1l-18.3,0v3v3v21.3H12h27.4
			l0,0c15.2,0,27.4-12.3,27.4-27.4h-3H60.7z"/>
	</g>
	<g>
		<polygon class="st0" points="682.9,35.3 682.9,38.3 682.9,41.4 682.9,62.7 685.9,62.7 689,62.7 731.7,62.7 731.7,56.6 689,56.6 
			689,41.4 743.9,41.4 743.9,35.3 		"/>
		<polygon class="st0" points="689,74.9 731.7,74.9 731.7,68.8 689,68.8 685.9,68.8 682.9,68.8 682.9,90.2 682.9,93.2 682.9,96.3 
			743.9,96.3 743.9,90.2 689,90.2 		"/>
	</g>
	<g>
		<path class="st0" d="M579.2,56.6l-12.2,0V41.4h27.4v0c9.7,0,17.8,6.4,20.5,15.2l-11.3,0v6.1l12.2,0l0,0h6.1
			c0-15.2-12.3-27.4-27.4-27.4v0H567h-6.1v21.3v3v3l18.3,0V56.6z"/>
		<path class="st0" d="M615.8,68.8l-12.2,0v6.1l11.3,0c-2.6,8.8-10.8,15.2-20.5,15.2v0H567V74.9l12.2,0v-6.1l-18.3,0v3v3v21.3h6.1
			h27.4l0,0c15.2,0,27.4-12.3,27.4-27.4h-3H615.8z"/>
	</g>
	<g>
		<path class="st0" d="M811,62.7h41.2v0c7.6,0,13.7-6.1,13.7-13.7s-6.1-13.7-13.7-13.7v0l-41.2,0v0h-6.1v6.1v21.3L811,62.7L811,62.7
			z M852.1,41.4c4.2,0,7.6,3.4,7.6,7.6s-3.4,7.6-7.6,7.6v0H811V41.4L852.1,41.4z"/>
		<polygon class="st0" points="849.3,68.8 844.5,68.8 843.2,68.8 811,68.8 804.9,68.8 804.9,74.9 804.9,96.3 811,96.3 811,74.9 
			846.6,74.9 858.4,96.3 859.8,96.3 864.5,96.3 865.9,96.3 850.6,68.8 		"/>
	</g>
	<g>
		<path class="st0" d="M263.5,35.3L263.5,35.3c-7.6,0-13.7,6.1-13.7,13.7s6.1,13.7,13.7,13.7h35.1v-6.1h-35.1v0
			c-4.2,0-7.6-3.4-7.6-7.6s3.4-7.6,7.6-7.6v0h47.3v-6.1H263.5z"/>
		<path class="st0" d="M297.1,68.8H262v6.1h35.1v0c4.2,0,7.6,3.4,7.6,7.6s-3.4,7.6-7.6,7.6v0h-47.3v6.1h47.3v0
			c7.6,0,13.7-6.1,13.7-13.7S304.7,68.8,297.1,68.8z"/>
	</g>
	<g>
		<path class="st0" d="M479.5,55.3c-1-4.5-2.6-8.8-4.8-12.8l7.4-12.9l-6.2-6.4l-6.2-6.4l-12.4,7.7c-3.8-2.3-7.9-4-12.3-5.1
			l-3.6-14.7h-8.7h-8.7l-3.5,14.7c-4.4,1.2-8.5,2.9-12.3,5.2l-12.4-7.7l-6.2,6.4l-6.2,6.4l7.4,12.9c-2.2,3.9-3.9,8.2-4.9,12.8
			L371.8,59v5.4c23.7-0.6,49.5-5.2,53.2-9.5c4.1-4.8,4.7-15.1,7.8-36.6c3.1,21.5,3.7,31.8,7.8,36.6c3.6,4.2,33.1,8.8,53.2,9.4V59
			L479.5,55.3z"/>
		<path class="st0" d="M432.8,113.2c-3.1-21.5-3.7-31.8-7.8-36.6c-3.6-4.2-33.1-8.8-53.2-9.4v5.3l14.3,3.7c1,4.5,2.7,8.8,4.9,12.8
			l-7.4,12.9l6.2,6.4l6.2,6.4l12.4-7.7c3.8,2.3,7.9,4,12.3,5.2l3.5,14.7h8.7h8.7l3.6-14.7c4.4-1.2,8.5-2.9,12.3-5.1l12.4,7.7
			l6.2-6.4l6.2-6.4L474.7,89c2.2-3.9,3.8-8.2,4.8-12.8l14.3-3.7v-5.4c-23.7,0.6-49.5,5.2-53.2,9.5
			C436.5,81.4,435.9,91.7,432.8,113.2z"/>
	</g>
</g>
</svg>
